<mxfile host="Electron" agent="Mozilla/5.0 (X11; Linux x86_64) AppleWebKit/537.36 (KHTML, like Gecko) draw.io/26.0.9 Chrome/128.0.6613.186 Electron/32.2.5 Safari/537.36" version="26.0.9">
  <diagram name="Page-1" id="C-5FlY565EhygjFoS13S">
    <mxGraphModel dx="1760" dy="1046" grid="1" gridSize="10" guides="1" tooltips="1" connect="1" arrows="1" fold="1" page="1" pageScale="1" pageWidth="850" pageHeight="1100" math="1" shadow="0">
      <root>
        <mxCell id="0" />
        <mxCell id="1" parent="0" />
        <mxCell id="AeEZ0mn3x4_2MiAu0hE8-78" value="" style="group" parent="1" vertex="1" connectable="0">
          <mxGeometry x="37" y="112" width="71" height="30" as="geometry" />
        </mxCell>
        <mxCell id="AeEZ0mn3x4_2MiAu0hE8-69" value="" style="shape=offPageConnector;whiteSpace=wrap;html=1;rotation=-90;fillColor=none;" parent="AeEZ0mn3x4_2MiAu0hE8-78" vertex="1">
          <mxGeometry x="40" y="-2.5" width="23" height="39" as="geometry" />
        </mxCell>
        <mxCell id="AeEZ0mn3x4_2MiAu0hE8-74" value="a[0]" style="text;align=center;verticalAlign=middle;resizable=0;points=[];autosize=1;strokeColor=none;fillColor=none;html=1;fontSize=10;" parent="AeEZ0mn3x4_2MiAu0hE8-78" vertex="1">
          <mxGeometry width="40" height="30" as="geometry" />
        </mxCell>
        <mxCell id="AeEZ0mn3x4_2MiAu0hE8-79" value="" style="group" parent="1" vertex="1" connectable="0">
          <mxGeometry x="37" y="142" width="71" height="30" as="geometry" />
        </mxCell>
        <mxCell id="AeEZ0mn3x4_2MiAu0hE8-70" value="&lt;span style=&quot;color: rgba(0, 0, 0, 0); font-family: monospace; font-size: 0px; text-align: start; text-wrap: nowrap;&quot;&gt;%3CmxGraphModel%3E%3Croot%3E%3CmxCell%20id%3D%220%22%2F%3E%3CmxCell%20id%3D%221%22%20parent%3D%220%22%2F%3E%3CmxCell%20id%3D%222%22%20value%3D%22%22%20style%3D%22shape%3DoffPageConnector%3BwhiteSpace%3Dwrap%3Bhtml%3D1%3B%22%20vertex%3D%221%22%20parent%3D%221%22%3E%3CmxGeometry%20x%3D%22290%22%20y%3D%22230%22%20width%3D%2280%22%20height%3D%2280%22%20as%3D%22geometry%22%2F%3E%3C%2FmxCell%3E%3C%2Froot%3E%3C%2FmxGraphModel%3E&lt;/span&gt;&lt;span style=&quot;color: rgba(0, 0, 0, 0); font-family: monospace; font-size: 0px; text-align: start; text-wrap: nowrap;&quot;&gt;%3CmxGraphModel%3E%3Croot%3E%3CmxCell%20id%3D%220%22%2F%3E%3CmxCell%20id%3D%221%22%20parent%3D%220%22%2F%3E%3CmxCell%20id%3D%222%22%20value%3D%22%22%20style%3D%22shape%3DoffPageConnector%3BwhiteSpace%3Dwrap%3Bhtml%3D1%3B%22%20vertex%3D%221%22%20parent%3D%221%22%3E%3CmxGeometry%20x%3D%22290%22%20y%3D%22230%22%20width%3D%2280%22%20height%3D%2280%22%20as%3D%22geometry%22%2F%3E%3C%2FmxCell%3E%3C%2Froot%3E%3C%2FmxGraphModel%3E&lt;/span&gt;" style="shape=offPageConnector;whiteSpace=wrap;html=1;rotation=-90;fillColor=none;" parent="AeEZ0mn3x4_2MiAu0hE8-79" vertex="1">
          <mxGeometry x="40" y="-2" width="23" height="39" as="geometry" />
        </mxCell>
        <mxCell id="AeEZ0mn3x4_2MiAu0hE8-75" value="a[1]" style="text;align=center;verticalAlign=middle;resizable=0;points=[];autosize=1;strokeColor=none;fillColor=none;html=1;fontSize=10;" parent="AeEZ0mn3x4_2MiAu0hE8-79" vertex="1">
          <mxGeometry width="40" height="30" as="geometry" />
        </mxCell>
        <mxCell id="AeEZ0mn3x4_2MiAu0hE8-80" value="" style="group" parent="1" vertex="1" connectable="0">
          <mxGeometry x="37" y="171.5" width="71" height="30" as="geometry" />
        </mxCell>
        <mxCell id="AeEZ0mn3x4_2MiAu0hE8-72" value="&lt;span style=&quot;color: rgba(0, 0, 0, 0); font-family: monospace; font-size: 0px; text-align: start; text-wrap: nowrap;&quot;&gt;%3CmxGraphModel%3E%3Croot%3E%3CmxCell%20id%3D%220%22%2F%3E%3CmxCell%20id%3D%221%22%20parent%3D%220%22%2F%3E%3CmxCell%20id%3D%222%22%20value%3D%22%22%20style%3D%22shape%3DoffPageConnector%3BwhiteSpace%3Dwrap%3Bhtml%3D1%3B%22%20vertex%3D%221%22%20parent%3D%221%22%3E%3CmxGeometry%20x%3D%22290%22%20y%3D%22230%22%20width%3D%2280%22%20height%3D%2280%22%20as%3D%22geometry%22%2F%3E%3C%2FmxCell%3E%3C%2Froot%3E%3C%2FmxGraphModel%3E&lt;/span&gt;&lt;span style=&quot;color: rgba(0, 0, 0, 0); font-family: monospace; font-size: 0px; text-align: start; text-wrap: nowrap;&quot;&gt;%3CmxGraphModel%3E%3Croot%3E%3CmxCell%20id%3D%220%22%2F%3E%3CmxCell%20id%3D%221%22%20parent%3D%220%22%2F%3E%3CmxCell%20id%3D%222%22%20value%3D%22%22%20style%3D%22shape%3DoffPageConnector%3BwhiteSpace%3Dwrap%3Bhtml%3D1%3B%22%20vertex%3D%221%22%20parent%3D%221%22%3E%3CmxGeometry%20x%3D%22290%22%20y%3D%22230%22%20width%3D%2280%22%20height%3D%2280%22%20as%3D%22geometry%22%2F%3E%3C%2FmxCell%3E%3C%2Froot%3E%3C%2FmxGraphModel%3E&lt;/span&gt;" style="shape=offPageConnector;whiteSpace=wrap;html=1;rotation=-90;fillColor=none;" parent="AeEZ0mn3x4_2MiAu0hE8-80" vertex="1">
          <mxGeometry x="40" y="-2.5" width="23" height="39" as="geometry" />
        </mxCell>
        <mxCell id="AeEZ0mn3x4_2MiAu0hE8-76" value="b[0]" style="text;align=center;verticalAlign=middle;resizable=0;points=[];autosize=1;strokeColor=none;fillColor=none;html=1;fontSize=10;" parent="AeEZ0mn3x4_2MiAu0hE8-80" vertex="1">
          <mxGeometry width="40" height="30" as="geometry" />
        </mxCell>
        <mxCell id="AeEZ0mn3x4_2MiAu0hE8-81" value="" style="group" parent="1" vertex="1" connectable="0">
          <mxGeometry x="37" y="203.5" width="71" height="30" as="geometry" />
        </mxCell>
        <mxCell id="AeEZ0mn3x4_2MiAu0hE8-71" value="&lt;span style=&quot;color: rgba(0, 0, 0, 0); font-family: monospace; font-size: 0px; text-align: start; text-wrap: nowrap;&quot;&gt;%3CmxGraphModel%3E%3Croot%3E%3CmxCell%20id%3D%220%22%2F%3E%3CmxCell%20id%3D%221%22%20parent%3D%220%22%2F%3E%3CmxCell%20id%3D%222%22%20value%3D%22%22%20style%3D%22shape%3DoffPageConnector%3BwhiteSpace%3Dwrap%3Bhtml%3D1%3B%22%20vertex%3D%221%22%20parent%3D%221%22%3E%3CmxGeometry%20x%3D%22290%22%20y%3D%22230%22%20width%3D%2280%22%20height%3D%2280%22%20as%3D%22geometry%22%2F%3E%3C%2FmxCell%3E%3C%2Froot%3E%3C%2FmxGraphModel%3E&lt;/span&gt;&lt;span style=&quot;color: rgba(0, 0, 0, 0); font-family: monospace; font-size: 0px; text-align: start; text-wrap: nowrap;&quot;&gt;%3CmxGraphModel%3E%3Croot%3E%3CmxCell%20id%3D%220%22%2F%3E%3CmxCell%20id%3D%221%22%20parent%3D%220%22%2F%3E%3CmxCell%20id%3D%222%22%20value%3D%22%22%20style%3D%22shape%3DoffPageConnector%3BwhiteSpace%3Dwrap%3Bhtml%3D1%3B%22%20vertex%3D%221%22%20parent%3D%221%22%3E%3CmxGeometry%20x%3D%22290%22%20y%3D%22230%22%20width%3D%2280%22%20height%3D%2280%22%20as%3D%22geometry%22%2F%3E%3C%2FmxCell%3E%3C%2Froot%3E%3C%2FmxGraphModel%3E&lt;/span&gt;" style="shape=offPageConnector;whiteSpace=wrap;html=1;rotation=-90;fillColor=none;" parent="AeEZ0mn3x4_2MiAu0hE8-81" vertex="1">
          <mxGeometry x="40" y="-2.5" width="23" height="39" as="geometry" />
        </mxCell>
        <mxCell id="AeEZ0mn3x4_2MiAu0hE8-77" value="b[1]" style="text;align=center;verticalAlign=middle;resizable=0;points=[];autosize=1;strokeColor=none;fillColor=none;html=1;fontSize=10;" parent="AeEZ0mn3x4_2MiAu0hE8-81" vertex="1">
          <mxGeometry width="40" height="30" as="geometry" />
        </mxCell>
        <mxCell id="1XL7TpapLNvimhhlDV3E-62" style="edgeStyle=orthogonalEdgeStyle;rounded=0;orthogonalLoop=1;jettySize=auto;html=1;exitX=1;exitY=0.5;exitDx=0;exitDy=0;exitPerimeter=0;" parent="1" source="AeEZ0mn3x4_2MiAu0hE8-110" target="1XL7TpapLNvimhhlDV3E-61" edge="1">
          <mxGeometry relative="1" as="geometry" />
        </mxCell>
        <mxCell id="AeEZ0mn3x4_2MiAu0hE8-110" value="" style="shape=xor;whiteSpace=wrap;html=1;" parent="1" vertex="1">
          <mxGeometry x="560" y="98" width="105" height="161" as="geometry" />
        </mxCell>
        <mxCell id="AeEZ0mn3x4_2MiAu0hE8-114" value="" style="group;" parent="1" vertex="1" connectable="0">
          <mxGeometry x="391" y="125" width="40" height="40" as="geometry" />
        </mxCell>
        <mxCell id="AeEZ0mn3x4_2MiAu0hE8-116" value="" style="shape=delay;whiteSpace=wrap;html=1;" parent="AeEZ0mn3x4_2MiAu0hE8-114" vertex="1">
          <mxGeometry width="31.999200019999503" height="33.99915002124947" as="geometry" />
        </mxCell>
        <mxCell id="AeEZ0mn3x4_2MiAu0hE8-117" value="" style="group;" parent="1" vertex="1" connectable="0">
          <mxGeometry x="391" y="175" width="40" height="40" as="geometry" />
        </mxCell>
        <mxCell id="AeEZ0mn3x4_2MiAu0hE8-119" value="" style="shape=delay;whiteSpace=wrap;html=1;" parent="AeEZ0mn3x4_2MiAu0hE8-117" vertex="1">
          <mxGeometry width="32" height="34" as="geometry" />
        </mxCell>
        <mxCell id="AeEZ0mn3x4_2MiAu0hE8-120" value="" style="group;" parent="1" vertex="1" connectable="0">
          <mxGeometry x="391" y="225" width="40" height="40" as="geometry" />
        </mxCell>
        <mxCell id="AeEZ0mn3x4_2MiAu0hE8-122" value="" style="shape=delay;whiteSpace=wrap;html=1;" parent="AeEZ0mn3x4_2MiAu0hE8-120" vertex="1">
          <mxGeometry width="32" height="34" as="geometry" />
        </mxCell>
        <mxCell id="AeEZ0mn3x4_2MiAu0hE8-123" value="" style="group;" parent="1" vertex="1" connectable="0">
          <mxGeometry x="391" y="77" width="40" height="40" as="geometry" />
        </mxCell>
        <mxCell id="AeEZ0mn3x4_2MiAu0hE8-125" value="" style="shape=delay;whiteSpace=wrap;html=1;" parent="AeEZ0mn3x4_2MiAu0hE8-123" vertex="1">
          <mxGeometry width="32" height="34" as="geometry" />
        </mxCell>
        <mxCell id="AeEZ0mn3x4_2MiAu0hE8-127" value="" style="group;" parent="1" vertex="1" connectable="0">
          <mxGeometry x="391" y="275" width="40" height="40" as="geometry" />
        </mxCell>
        <mxCell id="AeEZ0mn3x4_2MiAu0hE8-129" value="" style="shape=delay;whiteSpace=wrap;html=1;" parent="AeEZ0mn3x4_2MiAu0hE8-127" vertex="1">
          <mxGeometry width="32" height="34" as="geometry" />
        </mxCell>
        <mxCell id="1XL7TpapLNvimhhlDV3E-1" style="edgeStyle=orthogonalEdgeStyle;rounded=0;orthogonalLoop=1;jettySize=auto;html=1;exitX=1;exitY=0.5;exitDx=0;exitDy=0;entryX=0.127;entryY=0.158;entryDx=0;entryDy=0;entryPerimeter=0;" parent="1" source="AeEZ0mn3x4_2MiAu0hE8-125" target="AeEZ0mn3x4_2MiAu0hE8-110" edge="1">
          <mxGeometry relative="1" as="geometry">
            <mxPoint x="431" y="96.29411764705884" as="sourcePoint" />
          </mxGeometry>
        </mxCell>
        <mxCell id="1XL7TpapLNvimhhlDV3E-2" style="edgeStyle=orthogonalEdgeStyle;rounded=0;orthogonalLoop=1;jettySize=auto;html=1;exitX=1;exitY=0.5;exitDx=0;exitDy=0;entryX=0.175;entryY=0.25;entryDx=0;entryDy=0;entryPerimeter=0;" parent="1" source="AeEZ0mn3x4_2MiAu0hE8-116" target="AeEZ0mn3x4_2MiAu0hE8-110" edge="1">
          <mxGeometry relative="1" as="geometry">
            <mxPoint x="430.99980000499374" y="144.29401764955873" as="sourcePoint" />
          </mxGeometry>
        </mxCell>
        <mxCell id="1XL7TpapLNvimhhlDV3E-3" style="edgeStyle=orthogonalEdgeStyle;rounded=0;orthogonalLoop=1;jettySize=auto;html=1;exitX=1;exitY=0.5;exitDx=0;exitDy=0;entryX=0.209;entryY=0.362;entryDx=0;entryDy=0;entryPerimeter=0;" parent="1" source="AeEZ0mn3x4_2MiAu0hE8-119" target="AeEZ0mn3x4_2MiAu0hE8-110" edge="1">
          <mxGeometry relative="1" as="geometry">
            <mxPoint x="431" y="194.29411764705884" as="sourcePoint" />
            <Array as="points">
              <mxPoint x="423" y="194" />
              <mxPoint x="450" y="194" />
              <mxPoint x="450" y="156" />
            </Array>
          </mxGeometry>
        </mxCell>
        <mxCell id="1XL7TpapLNvimhhlDV3E-4" style="edgeStyle=orthogonalEdgeStyle;rounded=0;orthogonalLoop=1;jettySize=auto;html=1;exitX=1;exitY=0.5;exitDx=0;exitDy=0;entryX=0.25;entryY=0.5;entryDx=0;entryDy=0;entryPerimeter=0;" parent="1" source="AeEZ0mn3x4_2MiAu0hE8-122" target="AeEZ0mn3x4_2MiAu0hE8-110" edge="1">
          <mxGeometry relative="1" as="geometry">
            <mxPoint x="431" y="244.29411764705878" as="sourcePoint" />
            <Array as="points">
              <mxPoint x="423" y="244" />
              <mxPoint x="470" y="244" />
              <mxPoint x="470" y="178" />
            </Array>
          </mxGeometry>
        </mxCell>
        <mxCell id="1XL7TpapLNvimhhlDV3E-5" style="edgeStyle=orthogonalEdgeStyle;rounded=0;orthogonalLoop=1;jettySize=auto;html=1;exitX=1;exitY=0.5;exitDx=0;exitDy=0;entryX=0.19;entryY=0.696;entryDx=0;entryDy=0;entryPerimeter=0;" parent="1" source="AeEZ0mn3x4_2MiAu0hE8-129" target="AeEZ0mn3x4_2MiAu0hE8-110" edge="1">
          <mxGeometry relative="1" as="geometry">
            <mxPoint x="540" y="210" as="targetPoint" />
            <mxPoint x="431" y="294.2941176470588" as="sourcePoint" />
            <Array as="points">
              <mxPoint x="423" y="294" />
              <mxPoint x="510" y="294" />
              <mxPoint x="510" y="210" />
            </Array>
          </mxGeometry>
        </mxCell>
        <mxCell id="1XL7TpapLNvimhhlDV3E-70" style="edgeStyle=orthogonalEdgeStyle;rounded=0;orthogonalLoop=1;jettySize=auto;html=1;exitX=1;exitY=0.5;exitDx=0;exitDy=0;exitPerimeter=0;" parent="1" source="1XL7TpapLNvimhhlDV3E-6" target="1XL7TpapLNvimhhlDV3E-65" edge="1">
          <mxGeometry relative="1" as="geometry" />
        </mxCell>
        <mxCell id="1XL7TpapLNvimhhlDV3E-6" value="" style="shape=xor;whiteSpace=wrap;html=1;" parent="1" vertex="1">
          <mxGeometry x="570" y="444" width="105" height="161" as="geometry" />
        </mxCell>
        <mxCell id="1XL7TpapLNvimhhlDV3E-7" value="" style="group;" parent="1" vertex="1" connectable="0">
          <mxGeometry x="401" y="471" width="40" height="40" as="geometry" />
        </mxCell>
        <mxCell id="1XL7TpapLNvimhhlDV3E-8" value="" style="shape=delay;whiteSpace=wrap;html=1;" parent="1XL7TpapLNvimhhlDV3E-7" vertex="1">
          <mxGeometry width="31.999200019999503" height="33.99915002124947" as="geometry" />
        </mxCell>
        <mxCell id="1XL7TpapLNvimhhlDV3E-9" value="" style="group;" parent="1" vertex="1" connectable="0">
          <mxGeometry x="401" y="521" width="40" height="40" as="geometry" />
        </mxCell>
        <mxCell id="1XL7TpapLNvimhhlDV3E-10" value="" style="shape=delay;whiteSpace=wrap;html=1;" parent="1XL7TpapLNvimhhlDV3E-9" vertex="1">
          <mxGeometry width="32" height="34" as="geometry" />
        </mxCell>
        <mxCell id="1XL7TpapLNvimhhlDV3E-11" value="" style="group;" parent="1" vertex="1" connectable="0">
          <mxGeometry x="401" y="571" width="40" height="40" as="geometry" />
        </mxCell>
        <mxCell id="1XL7TpapLNvimhhlDV3E-12" value="" style="shape=delay;whiteSpace=wrap;html=1;" parent="1XL7TpapLNvimhhlDV3E-11" vertex="1">
          <mxGeometry width="32" height="34" as="geometry" />
        </mxCell>
        <mxCell id="1XL7TpapLNvimhhlDV3E-13" value="" style="group;" parent="1" vertex="1" connectable="0">
          <mxGeometry x="401" y="423" width="40" height="40" as="geometry" />
        </mxCell>
        <mxCell id="1XL7TpapLNvimhhlDV3E-14" value="" style="shape=delay;whiteSpace=wrap;html=1;" parent="1XL7TpapLNvimhhlDV3E-13" vertex="1">
          <mxGeometry width="32" height="34" as="geometry" />
        </mxCell>
        <mxCell id="1XL7TpapLNvimhhlDV3E-15" value="" style="group;" parent="1" vertex="1" connectable="0">
          <mxGeometry x="401" y="621" width="40" height="40" as="geometry" />
        </mxCell>
        <mxCell id="1XL7TpapLNvimhhlDV3E-16" value="" style="shape=delay;whiteSpace=wrap;html=1;" parent="1XL7TpapLNvimhhlDV3E-15" vertex="1">
          <mxGeometry width="32" height="34" as="geometry" />
        </mxCell>
        <mxCell id="1XL7TpapLNvimhhlDV3E-17" style="edgeStyle=orthogonalEdgeStyle;rounded=0;orthogonalLoop=1;jettySize=auto;html=1;exitX=1;exitY=0.5;exitDx=0;exitDy=0;entryX=0.127;entryY=0.158;entryDx=0;entryDy=0;entryPerimeter=0;" parent="1" source="1XL7TpapLNvimhhlDV3E-14" target="1XL7TpapLNvimhhlDV3E-6" edge="1">
          <mxGeometry relative="1" as="geometry">
            <mxPoint x="441" y="442.29411764705884" as="sourcePoint" />
          </mxGeometry>
        </mxCell>
        <mxCell id="1XL7TpapLNvimhhlDV3E-18" style="edgeStyle=orthogonalEdgeStyle;rounded=0;orthogonalLoop=1;jettySize=auto;html=1;exitX=1;exitY=0.5;exitDx=0;exitDy=0;entryX=0.175;entryY=0.25;entryDx=0;entryDy=0;entryPerimeter=0;" parent="1" source="1XL7TpapLNvimhhlDV3E-8" target="1XL7TpapLNvimhhlDV3E-6" edge="1">
          <mxGeometry relative="1" as="geometry">
            <mxPoint x="440.99980000499374" y="490.2940176495587" as="sourcePoint" />
          </mxGeometry>
        </mxCell>
        <mxCell id="1XL7TpapLNvimhhlDV3E-19" style="edgeStyle=orthogonalEdgeStyle;rounded=0;orthogonalLoop=1;jettySize=auto;html=1;exitX=1;exitY=0.5;exitDx=0;exitDy=0;entryX=0.209;entryY=0.362;entryDx=0;entryDy=0;entryPerimeter=0;" parent="1" source="1XL7TpapLNvimhhlDV3E-10" target="1XL7TpapLNvimhhlDV3E-6" edge="1">
          <mxGeometry relative="1" as="geometry">
            <mxPoint x="441" y="540.2941176470588" as="sourcePoint" />
            <Array as="points">
              <mxPoint x="433" y="540" />
              <mxPoint x="460" y="540" />
              <mxPoint x="460" y="502" />
            </Array>
          </mxGeometry>
        </mxCell>
        <mxCell id="1XL7TpapLNvimhhlDV3E-20" style="edgeStyle=orthogonalEdgeStyle;rounded=0;orthogonalLoop=1;jettySize=auto;html=1;exitX=1;exitY=0.5;exitDx=0;exitDy=0;entryX=0.25;entryY=0.5;entryDx=0;entryDy=0;entryPerimeter=0;" parent="1" source="1XL7TpapLNvimhhlDV3E-12" target="1XL7TpapLNvimhhlDV3E-6" edge="1">
          <mxGeometry relative="1" as="geometry">
            <mxPoint x="441" y="590.2941176470588" as="sourcePoint" />
            <Array as="points">
              <mxPoint x="433" y="590" />
              <mxPoint x="480" y="590" />
              <mxPoint x="480" y="524" />
            </Array>
          </mxGeometry>
        </mxCell>
        <mxCell id="1XL7TpapLNvimhhlDV3E-21" style="edgeStyle=orthogonalEdgeStyle;rounded=0;orthogonalLoop=1;jettySize=auto;html=1;exitX=1;exitY=0.5;exitDx=0;exitDy=0;entryX=0.19;entryY=0.696;entryDx=0;entryDy=0;entryPerimeter=0;" parent="1" source="1XL7TpapLNvimhhlDV3E-16" target="1XL7TpapLNvimhhlDV3E-6" edge="1">
          <mxGeometry relative="1" as="geometry">
            <mxPoint x="550" y="556" as="targetPoint" />
            <mxPoint x="441" y="640.2941176470588" as="sourcePoint" />
            <Array as="points">
              <mxPoint x="433" y="640" />
              <mxPoint x="520" y="640" />
              <mxPoint x="520" y="556" />
            </Array>
          </mxGeometry>
        </mxCell>
        <mxCell id="1XL7TpapLNvimhhlDV3E-69" style="edgeStyle=orthogonalEdgeStyle;rounded=0;orthogonalLoop=1;jettySize=auto;html=1;exitX=1;exitY=0.5;exitDx=0;exitDy=0;exitPerimeter=0;" parent="1" source="1XL7TpapLNvimhhlDV3E-22" target="1XL7TpapLNvimhhlDV3E-68" edge="1">
          <mxGeometry relative="1" as="geometry" />
        </mxCell>
        <mxCell id="1XL7TpapLNvimhhlDV3E-22" value="" style="shape=xor;whiteSpace=wrap;html=1;" parent="1" vertex="1">
          <mxGeometry x="580" y="838" width="105" height="161" as="geometry" />
        </mxCell>
        <mxCell id="1XL7TpapLNvimhhlDV3E-23" value="" style="group;" parent="1" vertex="1" connectable="0">
          <mxGeometry x="411" y="839" width="40" height="40" as="geometry" />
        </mxCell>
        <mxCell id="1XL7TpapLNvimhhlDV3E-24" value="" style="shape=delay;whiteSpace=wrap;html=1;" parent="1XL7TpapLNvimhhlDV3E-23" vertex="1">
          <mxGeometry width="31.999200019999503" height="33.99915002124947" as="geometry" />
        </mxCell>
        <mxCell id="1XL7TpapLNvimhhlDV3E-25" value="" style="group;" parent="1" vertex="1" connectable="0">
          <mxGeometry x="411" y="889" width="40" height="40" as="geometry" />
        </mxCell>
        <mxCell id="1XL7TpapLNvimhhlDV3E-26" value="" style="shape=delay;whiteSpace=wrap;html=1;" parent="1XL7TpapLNvimhhlDV3E-25" vertex="1">
          <mxGeometry width="32" height="34" as="geometry" />
        </mxCell>
        <mxCell id="1XL7TpapLNvimhhlDV3E-27" value="" style="group;" parent="1" vertex="1" connectable="0">
          <mxGeometry x="411" y="939" width="40" height="40" as="geometry" />
        </mxCell>
        <mxCell id="1XL7TpapLNvimhhlDV3E-28" value="" style="shape=delay;whiteSpace=wrap;html=1;" parent="1XL7TpapLNvimhhlDV3E-27" vertex="1">
          <mxGeometry width="32" height="34" as="geometry" />
        </mxCell>
        <mxCell id="1XL7TpapLNvimhhlDV3E-29" value="" style="group;" parent="1" vertex="1" connectable="0">
          <mxGeometry x="411" y="791" width="40" height="40" as="geometry" />
        </mxCell>
        <mxCell id="1XL7TpapLNvimhhlDV3E-30" value="" style="shape=delay;whiteSpace=wrap;html=1;" parent="1XL7TpapLNvimhhlDV3E-29" vertex="1">
          <mxGeometry width="32" height="34" as="geometry" />
        </mxCell>
        <mxCell id="1XL7TpapLNvimhhlDV3E-31" value="" style="group;" parent="1" vertex="1" connectable="0">
          <mxGeometry x="411" y="989" width="40" height="40" as="geometry" />
        </mxCell>
        <mxCell id="1XL7TpapLNvimhhlDV3E-32" value="" style="shape=delay;whiteSpace=wrap;html=1;" parent="1XL7TpapLNvimhhlDV3E-31" vertex="1">
          <mxGeometry width="32" height="34" as="geometry" />
        </mxCell>
        <mxCell id="1XL7TpapLNvimhhlDV3E-33" style="edgeStyle=orthogonalEdgeStyle;rounded=0;orthogonalLoop=1;jettySize=auto;html=1;exitX=1;exitY=0.5;exitDx=0;exitDy=0;entryX=0.127;entryY=0.158;entryDx=0;entryDy=0;entryPerimeter=0;" parent="1" source="1XL7TpapLNvimhhlDV3E-30" target="1XL7TpapLNvimhhlDV3E-22" edge="1">
          <mxGeometry relative="1" as="geometry">
            <mxPoint x="451" y="836.2941176470588" as="sourcePoint" />
            <Array as="points">
              <mxPoint x="490" y="808" />
              <mxPoint x="490" y="863" />
              <mxPoint x="580" y="863" />
            </Array>
          </mxGeometry>
        </mxCell>
        <mxCell id="1XL7TpapLNvimhhlDV3E-34" style="edgeStyle=orthogonalEdgeStyle;rounded=0;orthogonalLoop=1;jettySize=auto;html=1;exitX=1;exitY=0.5;exitDx=0;exitDy=0;entryX=0.175;entryY=0.25;entryDx=0;entryDy=0;entryPerimeter=0;" parent="1" source="1XL7TpapLNvimhhlDV3E-24" target="1XL7TpapLNvimhhlDV3E-22" edge="1">
          <mxGeometry relative="1" as="geometry">
            <mxPoint x="450.99980000499374" y="884.2940176495588" as="sourcePoint" />
            <Array as="points">
              <mxPoint x="460" y="856" />
              <mxPoint x="460" y="878" />
            </Array>
          </mxGeometry>
        </mxCell>
        <mxCell id="1XL7TpapLNvimhhlDV3E-35" style="edgeStyle=orthogonalEdgeStyle;rounded=0;orthogonalLoop=1;jettySize=auto;html=1;exitX=1;exitY=0.5;exitDx=0;exitDy=0;entryX=0.209;entryY=0.362;entryDx=0;entryDy=0;entryPerimeter=0;" parent="1" source="1XL7TpapLNvimhhlDV3E-26" target="1XL7TpapLNvimhhlDV3E-22" edge="1">
          <mxGeometry relative="1" as="geometry">
            <mxPoint x="451" y="934.2941176470588" as="sourcePoint" />
            <Array as="points">
              <mxPoint x="470" y="906" />
              <mxPoint x="470" y="896" />
            </Array>
          </mxGeometry>
        </mxCell>
        <mxCell id="1XL7TpapLNvimhhlDV3E-36" style="edgeStyle=orthogonalEdgeStyle;rounded=0;orthogonalLoop=1;jettySize=auto;html=1;exitX=1;exitY=0.5;exitDx=0;exitDy=0;entryX=0.25;entryY=0.5;entryDx=0;entryDy=0;entryPerimeter=0;" parent="1" source="1XL7TpapLNvimhhlDV3E-28" target="1XL7TpapLNvimhhlDV3E-22" edge="1">
          <mxGeometry relative="1" as="geometry">
            <mxPoint x="451" y="984.2941176470588" as="sourcePoint" />
            <Array as="points">
              <mxPoint x="490" y="956" />
              <mxPoint x="490" y="919" />
            </Array>
          </mxGeometry>
        </mxCell>
        <mxCell id="1XL7TpapLNvimhhlDV3E-37" style="edgeStyle=orthogonalEdgeStyle;rounded=0;orthogonalLoop=1;jettySize=auto;html=1;exitX=1;exitY=0.5;exitDx=0;exitDy=0;entryX=0.19;entryY=0.696;entryDx=0;entryDy=0;entryPerimeter=0;" parent="1" source="1XL7TpapLNvimhhlDV3E-32" target="1XL7TpapLNvimhhlDV3E-22" edge="1">
          <mxGeometry relative="1" as="geometry">
            <mxPoint x="560" y="950" as="targetPoint" />
            <mxPoint x="451" y="1034.2941176470588" as="sourcePoint" />
            <Array as="points">
              <mxPoint x="443" y="1000" />
              <mxPoint x="530" y="1000" />
              <mxPoint x="530" y="950" />
            </Array>
          </mxGeometry>
        </mxCell>
        <mxCell id="1XL7TpapLNvimhhlDV3E-39" value="" style="endArrow=none;html=1;rounded=0;exitX=0.5;exitY=1;exitDx=0;exitDy=0;entryX=0;entryY=0.75;entryDx=0;entryDy=0;" parent="1" source="AeEZ0mn3x4_2MiAu0hE8-71" target="AeEZ0mn3x4_2MiAu0hE8-125" edge="1">
          <mxGeometry width="50" height="50" relative="1" as="geometry">
            <mxPoint x="270" y="170" as="sourcePoint" />
            <mxPoint x="320" y="120" as="targetPoint" />
            <Array as="points">
              <mxPoint x="180" y="220" />
              <mxPoint x="180" y="103" />
              <mxPoint x="280" y="103" />
            </Array>
          </mxGeometry>
        </mxCell>
        <mxCell id="1XL7TpapLNvimhhlDV3E-41" value="" style="endArrow=none;html=1;rounded=0;exitX=0.5;exitY=1;exitDx=0;exitDy=0;entryX=0;entryY=0.25;entryDx=0;entryDy=0;" parent="1" source="AeEZ0mn3x4_2MiAu0hE8-72" target="AeEZ0mn3x4_2MiAu0hE8-125" edge="1">
          <mxGeometry width="50" height="50" relative="1" as="geometry">
            <mxPoint x="280" y="80" as="sourcePoint" />
            <mxPoint x="330" y="30" as="targetPoint" />
            <Array as="points">
              <mxPoint x="140" y="189" />
              <mxPoint x="140" y="86" />
            </Array>
          </mxGeometry>
        </mxCell>
        <mxCell id="1XL7TpapLNvimhhlDV3E-42" value="" style="ellipse;whiteSpace=wrap;html=1;aspect=fixed;" parent="1" vertex="1">
          <mxGeometry x="382" y="99" width="8" height="8" as="geometry" />
        </mxCell>
        <mxCell id="1XL7TpapLNvimhhlDV3E-43" value="" style="ellipse;whiteSpace=wrap;html=1;aspect=fixed;" parent="1" vertex="1">
          <mxGeometry x="383" y="82" width="8" height="8" as="geometry" />
        </mxCell>
        <mxCell id="1XL7TpapLNvimhhlDV3E-44" value="" style="endArrow=none;html=1;rounded=0;" parent="1" edge="1">
          <mxGeometry width="50" height="50" relative="1" as="geometry">
            <mxPoint x="140" y="130" as="sourcePoint" />
            <mxPoint x="390" y="130" as="targetPoint" />
          </mxGeometry>
        </mxCell>
        <mxCell id="1XL7TpapLNvimhhlDV3E-45" value="" style="ellipse;whiteSpace=wrap;html=1;aspect=fixed;" parent="1" vertex="1">
          <mxGeometry x="383" y="127" width="8" height="8" as="geometry" />
        </mxCell>
        <mxCell id="1XL7TpapLNvimhhlDV3E-46" value="" style="endArrow=none;html=1;rounded=0;exitX=0.5;exitY=1;exitDx=0;exitDy=0;entryX=0;entryY=0.75;entryDx=0;entryDy=0;" parent="1" source="AeEZ0mn3x4_2MiAu0hE8-70" target="AeEZ0mn3x4_2MiAu0hE8-116" edge="1">
          <mxGeometry width="50" height="50" relative="1" as="geometry">
            <mxPoint x="280" y="80" as="sourcePoint" />
            <mxPoint x="330" y="30" as="targetPoint" />
            <Array as="points">
              <mxPoint x="120" y="160" />
              <mxPoint x="120" y="150" />
            </Array>
          </mxGeometry>
        </mxCell>
        <mxCell id="1XL7TpapLNvimhhlDV3E-47" value="" style="endArrow=none;html=1;rounded=0;exitX=0.5;exitY=1;exitDx=0;exitDy=0;entryX=0;entryY=0.25;entryDx=0;entryDy=0;" parent="1" source="AeEZ0mn3x4_2MiAu0hE8-69" target="AeEZ0mn3x4_2MiAu0hE8-119" edge="1">
          <mxGeometry width="50" height="50" relative="1" as="geometry">
            <mxPoint x="280" y="80" as="sourcePoint" />
            <mxPoint x="330" y="30" as="targetPoint" />
            <Array as="points">
              <mxPoint x="260" y="120" />
            </Array>
          </mxGeometry>
        </mxCell>
        <mxCell id="1XL7TpapLNvimhhlDV3E-48" value="" style="endArrow=none;html=1;rounded=0;exitX=0.5;exitY=1;exitDx=0;exitDy=0;" parent="1" source="AeEZ0mn3x4_2MiAu0hE8-72" edge="1">
          <mxGeometry width="50" height="50" relative="1" as="geometry">
            <mxPoint x="130" y="190" as="sourcePoint" />
            <mxPoint x="390" y="200" as="targetPoint" />
          </mxGeometry>
        </mxCell>
        <mxCell id="1XL7TpapLNvimhhlDV3E-49" value="" style="ellipse;whiteSpace=wrap;html=1;aspect=fixed;" parent="1" vertex="1">
          <mxGeometry x="383" y="196" width="8" height="8" as="geometry" />
        </mxCell>
        <mxCell id="1XL7TpapLNvimhhlDV3E-50" value="" style="endArrow=none;html=1;rounded=0;entryX=0;entryY=0.25;entryDx=0;entryDy=0;" parent="1" target="AeEZ0mn3x4_2MiAu0hE8-122" edge="1">
          <mxGeometry width="50" height="50" relative="1" as="geometry">
            <mxPoint x="110" y="130" as="sourcePoint" />
            <mxPoint x="390" y="240" as="targetPoint" />
          </mxGeometry>
        </mxCell>
        <mxCell id="1XL7TpapLNvimhhlDV3E-51" value="" style="endArrow=none;html=1;rounded=0;entryX=0;entryY=0.75;entryDx=0;entryDy=0;" parent="1" target="AeEZ0mn3x4_2MiAu0hE8-122" edge="1">
          <mxGeometry width="50" height="50" relative="1" as="geometry">
            <mxPoint x="110" y="160" as="sourcePoint" />
            <mxPoint x="390" y="250" as="targetPoint" />
          </mxGeometry>
        </mxCell>
        <mxCell id="1XL7TpapLNvimhhlDV3E-52" value="" style="endArrow=none;html=1;rounded=0;exitX=0.5;exitY=1;exitDx=0;exitDy=0;entryX=0;entryY=0.25;entryDx=0;entryDy=0;" parent="1" source="AeEZ0mn3x4_2MiAu0hE8-69" target="AeEZ0mn3x4_2MiAu0hE8-129" edge="1">
          <mxGeometry width="50" height="50" relative="1" as="geometry">
            <mxPoint x="280" y="80" as="sourcePoint" />
            <mxPoint x="330" y="30" as="targetPoint" />
            <Array as="points">
              <mxPoint x="150" y="280" />
            </Array>
          </mxGeometry>
        </mxCell>
        <mxCell id="1XL7TpapLNvimhhlDV3E-53" value="" style="endArrow=none;html=1;rounded=0;exitX=0.5;exitY=1;exitDx=0;exitDy=0;entryX=0;entryY=0.5;entryDx=0;entryDy=0;" parent="1" source="AeEZ0mn3x4_2MiAu0hE8-70" target="AeEZ0mn3x4_2MiAu0hE8-129" edge="1">
          <mxGeometry width="50" height="50" relative="1" as="geometry">
            <mxPoint x="290" y="90" as="sourcePoint" />
            <mxPoint x="340" y="40" as="targetPoint" />
            <Array as="points">
              <mxPoint x="130" y="290" />
            </Array>
          </mxGeometry>
        </mxCell>
        <mxCell id="1XL7TpapLNvimhhlDV3E-54" value="" style="endArrow=none;html=1;rounded=0;exitX=0.5;exitY=1;exitDx=0;exitDy=0;" parent="1" source="AeEZ0mn3x4_2MiAu0hE8-71" edge="1">
          <mxGeometry width="50" height="50" relative="1" as="geometry">
            <mxPoint x="300" y="100" as="sourcePoint" />
            <mxPoint x="390" y="300" as="targetPoint" />
            <Array as="points">
              <mxPoint x="110" y="300" />
            </Array>
          </mxGeometry>
        </mxCell>
        <mxCell id="1XL7TpapLNvimhhlDV3E-55" value="" style="ellipse;whiteSpace=wrap;html=1;aspect=fixed;" parent="1" vertex="1">
          <mxGeometry x="383" y="296" width="8" height="8" as="geometry" />
        </mxCell>
        <mxCell id="1XL7TpapLNvimhhlDV3E-59" value="" style="group" parent="1" vertex="1" connectable="0">
          <mxGeometry x="750" y="160" width="71" height="30" as="geometry" />
        </mxCell>
        <mxCell id="1XL7TpapLNvimhhlDV3E-60" value="" style="shape=offPageConnector;whiteSpace=wrap;html=1;rotation=-90;fillColor=none;" parent="1XL7TpapLNvimhhlDV3E-59" vertex="1">
          <mxGeometry x="40" y="-2.5" width="23" height="39" as="geometry" />
        </mxCell>
        <mxCell id="1XL7TpapLNvimhhlDV3E-61" value="red_color" style="text;align=center;verticalAlign=middle;resizable=0;points=[];autosize=1;strokeColor=none;fillColor=none;html=1;fontSize=10;" parent="1XL7TpapLNvimhhlDV3E-59" vertex="1">
          <mxGeometry x="-28" width="70" height="30" as="geometry" />
        </mxCell>
        <mxCell id="1XL7TpapLNvimhhlDV3E-63" value="" style="group" parent="1" vertex="1" connectable="0">
          <mxGeometry x="761" y="507" width="71" height="30" as="geometry" />
        </mxCell>
        <mxCell id="1XL7TpapLNvimhhlDV3E-64" value="" style="shape=offPageConnector;whiteSpace=wrap;html=1;rotation=-90;fillColor=none;" parent="1XL7TpapLNvimhhlDV3E-63" vertex="1">
          <mxGeometry x="40" y="-2.5" width="23" height="39" as="geometry" />
        </mxCell>
        <mxCell id="1XL7TpapLNvimhhlDV3E-65" value="blue_color" style="text;align=center;verticalAlign=middle;resizable=0;points=[];autosize=1;strokeColor=none;fillColor=none;html=1;fontSize=10;" parent="1XL7TpapLNvimhhlDV3E-63" vertex="1">
          <mxGeometry x="-35" width="70" height="30" as="geometry" />
        </mxCell>
        <mxCell id="1XL7TpapLNvimhhlDV3E-66" value="" style="group" parent="1" vertex="1" connectable="0">
          <mxGeometry x="750" y="897" width="71" height="30" as="geometry" />
        </mxCell>
        <mxCell id="1XL7TpapLNvimhhlDV3E-67" value="" style="shape=offPageConnector;whiteSpace=wrap;html=1;rotation=-90;fillColor=none;" parent="1XL7TpapLNvimhhlDV3E-66" vertex="1">
          <mxGeometry x="40" y="-2.5" width="23" height="39" as="geometry" />
        </mxCell>
        <mxCell id="1XL7TpapLNvimhhlDV3E-68" value="green_color" style="text;align=center;verticalAlign=middle;resizable=0;points=[];autosize=1;strokeColor=none;fillColor=none;html=1;fontSize=10;" parent="1XL7TpapLNvimhhlDV3E-66" vertex="1">
          <mxGeometry x="-33" width="80" height="30" as="geometry" />
        </mxCell>
        <mxCell id="1XL7TpapLNvimhhlDV3E-71" value="" style="group" parent="1" vertex="1" connectable="0">
          <mxGeometry x="47" y="472" width="71" height="30" as="geometry" />
        </mxCell>
        <mxCell id="1XL7TpapLNvimhhlDV3E-72" value="" style="shape=offPageConnector;whiteSpace=wrap;html=1;rotation=-90;fillColor=none;" parent="1XL7TpapLNvimhhlDV3E-71" vertex="1">
          <mxGeometry x="40" y="-2.5" width="23" height="39" as="geometry" />
        </mxCell>
        <mxCell id="1XL7TpapLNvimhhlDV3E-73" value="a[0]" style="text;align=center;verticalAlign=middle;resizable=0;points=[];autosize=1;strokeColor=none;fillColor=none;html=1;fontSize=10;" parent="1XL7TpapLNvimhhlDV3E-71" vertex="1">
          <mxGeometry width="40" height="30" as="geometry" />
        </mxCell>
        <mxCell id="1XL7TpapLNvimhhlDV3E-74" value="" style="group" parent="1" vertex="1" connectable="0">
          <mxGeometry x="47" y="502" width="71" height="30" as="geometry" />
        </mxCell>
        <mxCell id="1XL7TpapLNvimhhlDV3E-75" value="&lt;span style=&quot;color: rgba(0, 0, 0, 0); font-family: monospace; font-size: 0px; text-align: start; text-wrap: nowrap;&quot;&gt;%3CmxGraphModel%3E%3Croot%3E%3CmxCell%20id%3D%220%22%2F%3E%3CmxCell%20id%3D%221%22%20parent%3D%220%22%2F%3E%3CmxCell%20id%3D%222%22%20value%3D%22%22%20style%3D%22shape%3DoffPageConnector%3BwhiteSpace%3Dwrap%3Bhtml%3D1%3B%22%20vertex%3D%221%22%20parent%3D%221%22%3E%3CmxGeometry%20x%3D%22290%22%20y%3D%22230%22%20width%3D%2280%22%20height%3D%2280%22%20as%3D%22geometry%22%2F%3E%3C%2FmxCell%3E%3C%2Froot%3E%3C%2FmxGraphModel%3E&lt;/span&gt;&lt;span style=&quot;color: rgba(0, 0, 0, 0); font-family: monospace; font-size: 0px; text-align: start; text-wrap: nowrap;&quot;&gt;%3CmxGraphModel%3E%3Croot%3E%3CmxCell%20id%3D%220%22%2F%3E%3CmxCell%20id%3D%221%22%20parent%3D%220%22%2F%3E%3CmxCell%20id%3D%222%22%20value%3D%22%22%20style%3D%22shape%3DoffPageConnector%3BwhiteSpace%3Dwrap%3Bhtml%3D1%3B%22%20vertex%3D%221%22%20parent%3D%221%22%3E%3CmxGeometry%20x%3D%22290%22%20y%3D%22230%22%20width%3D%2280%22%20height%3D%2280%22%20as%3D%22geometry%22%2F%3E%3C%2FmxCell%3E%3C%2Froot%3E%3C%2FmxGraphModel%3E&lt;/span&gt;" style="shape=offPageConnector;whiteSpace=wrap;html=1;rotation=-90;fillColor=none;" parent="1XL7TpapLNvimhhlDV3E-74" vertex="1">
          <mxGeometry x="40" y="-2" width="23" height="39" as="geometry" />
        </mxCell>
        <mxCell id="1XL7TpapLNvimhhlDV3E-76" value="a[1]" style="text;align=center;verticalAlign=middle;resizable=0;points=[];autosize=1;strokeColor=none;fillColor=none;html=1;fontSize=10;" parent="1XL7TpapLNvimhhlDV3E-74" vertex="1">
          <mxGeometry width="40" height="30" as="geometry" />
        </mxCell>
        <mxCell id="1XL7TpapLNvimhhlDV3E-77" value="" style="group" parent="1" vertex="1" connectable="0">
          <mxGeometry x="47" y="531.5" width="71" height="30" as="geometry" />
        </mxCell>
        <mxCell id="1XL7TpapLNvimhhlDV3E-78" value="&lt;span style=&quot;color: rgba(0, 0, 0, 0); font-family: monospace; font-size: 0px; text-align: start; text-wrap: nowrap;&quot;&gt;%3CmxGraphModel%3E%3Croot%3E%3CmxCell%20id%3D%220%22%2F%3E%3CmxCell%20id%3D%221%22%20parent%3D%220%22%2F%3E%3CmxCell%20id%3D%222%22%20value%3D%22%22%20style%3D%22shape%3DoffPageConnector%3BwhiteSpace%3Dwrap%3Bhtml%3D1%3B%22%20vertex%3D%221%22%20parent%3D%221%22%3E%3CmxGeometry%20x%3D%22290%22%20y%3D%22230%22%20width%3D%2280%22%20height%3D%2280%22%20as%3D%22geometry%22%2F%3E%3C%2FmxCell%3E%3C%2Froot%3E%3C%2FmxGraphModel%3E&lt;/span&gt;&lt;span style=&quot;color: rgba(0, 0, 0, 0); font-family: monospace; font-size: 0px; text-align: start; text-wrap: nowrap;&quot;&gt;%3CmxGraphModel%3E%3Croot%3E%3CmxCell%20id%3D%220%22%2F%3E%3CmxCell%20id%3D%221%22%20parent%3D%220%22%2F%3E%3CmxCell%20id%3D%222%22%20value%3D%22%22%20style%3D%22shape%3DoffPageConnector%3BwhiteSpace%3Dwrap%3Bhtml%3D1%3B%22%20vertex%3D%221%22%20parent%3D%221%22%3E%3CmxGeometry%20x%3D%22290%22%20y%3D%22230%22%20width%3D%2280%22%20height%3D%2280%22%20as%3D%22geometry%22%2F%3E%3C%2FmxCell%3E%3C%2Froot%3E%3C%2FmxGraphModel%3E&lt;/span&gt;" style="shape=offPageConnector;whiteSpace=wrap;html=1;rotation=-90;fillColor=none;" parent="1XL7TpapLNvimhhlDV3E-77" vertex="1">
          <mxGeometry x="40" y="-2.5" width="23" height="39" as="geometry" />
        </mxCell>
        <mxCell id="1XL7TpapLNvimhhlDV3E-79" value="b[0]" style="text;align=center;verticalAlign=middle;resizable=0;points=[];autosize=1;strokeColor=none;fillColor=none;html=1;fontSize=10;" parent="1XL7TpapLNvimhhlDV3E-77" vertex="1">
          <mxGeometry width="40" height="30" as="geometry" />
        </mxCell>
        <mxCell id="1XL7TpapLNvimhhlDV3E-80" value="" style="group" parent="1" vertex="1" connectable="0">
          <mxGeometry x="47" y="563.5" width="71" height="30" as="geometry" />
        </mxCell>
        <mxCell id="1XL7TpapLNvimhhlDV3E-81" value="&lt;span style=&quot;color: rgba(0, 0, 0, 0); font-family: monospace; font-size: 0px; text-align: start; text-wrap: nowrap;&quot;&gt;%3CmxGraphModel%3E%3Croot%3E%3CmxCell%20id%3D%220%22%2F%3E%3CmxCell%20id%3D%221%22%20parent%3D%220%22%2F%3E%3CmxCell%20id%3D%222%22%20value%3D%22%22%20style%3D%22shape%3DoffPageConnector%3BwhiteSpace%3Dwrap%3Bhtml%3D1%3B%22%20vertex%3D%221%22%20parent%3D%221%22%3E%3CmxGeometry%20x%3D%22290%22%20y%3D%22230%22%20width%3D%2280%22%20height%3D%2280%22%20as%3D%22geometry%22%2F%3E%3C%2FmxCell%3E%3C%2Froot%3E%3C%2FmxGraphModel%3E&lt;/span&gt;&lt;span style=&quot;color: rgba(0, 0, 0, 0); font-family: monospace; font-size: 0px; text-align: start; text-wrap: nowrap;&quot;&gt;%3CmxGraphModel%3E%3Croot%3E%3CmxCell%20id%3D%220%22%2F%3E%3CmxCell%20id%3D%221%22%20parent%3D%220%22%2F%3E%3CmxCell%20id%3D%222%22%20value%3D%22%22%20style%3D%22shape%3DoffPageConnector%3BwhiteSpace%3Dwrap%3Bhtml%3D1%3B%22%20vertex%3D%221%22%20parent%3D%221%22%3E%3CmxGeometry%20x%3D%22290%22%20y%3D%22230%22%20width%3D%2280%22%20height%3D%2280%22%20as%3D%22geometry%22%2F%3E%3C%2FmxCell%3E%3C%2Froot%3E%3C%2FmxGraphModel%3E&lt;/span&gt;" style="shape=offPageConnector;whiteSpace=wrap;html=1;rotation=-90;fillColor=none;" parent="1XL7TpapLNvimhhlDV3E-80" vertex="1">
          <mxGeometry x="40" y="-2.5" width="23" height="39" as="geometry" />
        </mxCell>
        <mxCell id="1XL7TpapLNvimhhlDV3E-82" value="b[1]" style="text;align=center;verticalAlign=middle;resizable=0;points=[];autosize=1;strokeColor=none;fillColor=none;html=1;fontSize=10;" parent="1XL7TpapLNvimhhlDV3E-80" vertex="1">
          <mxGeometry width="40" height="30" as="geometry" />
        </mxCell>
        <mxCell id="1XL7TpapLNvimhhlDV3E-83" value="" style="group" parent="1" vertex="1" connectable="0">
          <mxGeometry x="57" y="832" width="71" height="30" as="geometry" />
        </mxCell>
        <mxCell id="1XL7TpapLNvimhhlDV3E-84" value="" style="shape=offPageConnector;whiteSpace=wrap;html=1;rotation=-90;fillColor=none;" parent="1XL7TpapLNvimhhlDV3E-83" vertex="1">
          <mxGeometry x="40" y="-2.5" width="23" height="39" as="geometry" />
        </mxCell>
        <mxCell id="1XL7TpapLNvimhhlDV3E-85" value="a[0]" style="text;align=center;verticalAlign=middle;resizable=0;points=[];autosize=1;strokeColor=none;fillColor=none;html=1;fontSize=10;" parent="1XL7TpapLNvimhhlDV3E-83" vertex="1">
          <mxGeometry width="40" height="30" as="geometry" />
        </mxCell>
        <mxCell id="1XL7TpapLNvimhhlDV3E-86" value="" style="group" parent="1" vertex="1" connectable="0">
          <mxGeometry x="57" y="862" width="71" height="30" as="geometry" />
        </mxCell>
        <mxCell id="1XL7TpapLNvimhhlDV3E-87" value="&lt;span style=&quot;color: rgba(0, 0, 0, 0); font-family: monospace; font-size: 0px; text-align: start; text-wrap: nowrap;&quot;&gt;%3CmxGraphModel%3E%3Croot%3E%3CmxCell%20id%3D%220%22%2F%3E%3CmxCell%20id%3D%221%22%20parent%3D%220%22%2F%3E%3CmxCell%20id%3D%222%22%20value%3D%22%22%20style%3D%22shape%3DoffPageConnector%3BwhiteSpace%3Dwrap%3Bhtml%3D1%3B%22%20vertex%3D%221%22%20parent%3D%221%22%3E%3CmxGeometry%20x%3D%22290%22%20y%3D%22230%22%20width%3D%2280%22%20height%3D%2280%22%20as%3D%22geometry%22%2F%3E%3C%2FmxCell%3E%3C%2Froot%3E%3C%2FmxGraphModel%3E&lt;/span&gt;&lt;span style=&quot;color: rgba(0, 0, 0, 0); font-family: monospace; font-size: 0px; text-align: start; text-wrap: nowrap;&quot;&gt;%3CmxGraphModel%3E%3Croot%3E%3CmxCell%20id%3D%220%22%2F%3E%3CmxCell%20id%3D%221%22%20parent%3D%220%22%2F%3E%3CmxCell%20id%3D%222%22%20value%3D%22%22%20style%3D%22shape%3DoffPageConnector%3BwhiteSpace%3Dwrap%3Bhtml%3D1%3B%22%20vertex%3D%221%22%20parent%3D%221%22%3E%3CmxGeometry%20x%3D%22290%22%20y%3D%22230%22%20width%3D%2280%22%20height%3D%2280%22%20as%3D%22geometry%22%2F%3E%3C%2FmxCell%3E%3C%2Froot%3E%3C%2FmxGraphModel%3E&lt;/span&gt;" style="shape=offPageConnector;whiteSpace=wrap;html=1;rotation=-90;fillColor=none;" parent="1XL7TpapLNvimhhlDV3E-86" vertex="1">
          <mxGeometry x="40" y="-2" width="23" height="39" as="geometry" />
        </mxCell>
        <mxCell id="1XL7TpapLNvimhhlDV3E-88" value="a[1]" style="text;align=center;verticalAlign=middle;resizable=0;points=[];autosize=1;strokeColor=none;fillColor=none;html=1;fontSize=10;" parent="1XL7TpapLNvimhhlDV3E-86" vertex="1">
          <mxGeometry width="40" height="30" as="geometry" />
        </mxCell>
        <mxCell id="1XL7TpapLNvimhhlDV3E-89" value="" style="group" parent="1" vertex="1" connectable="0">
          <mxGeometry x="57" y="891.5" width="71" height="30" as="geometry" />
        </mxCell>
        <mxCell id="1XL7TpapLNvimhhlDV3E-90" value="&lt;span style=&quot;color: rgba(0, 0, 0, 0); font-family: monospace; font-size: 0px; text-align: start; text-wrap: nowrap;&quot;&gt;%3CmxGraphModel%3E%3Croot%3E%3CmxCell%20id%3D%220%22%2F%3E%3CmxCell%20id%3D%221%22%20parent%3D%220%22%2F%3E%3CmxCell%20id%3D%222%22%20value%3D%22%22%20style%3D%22shape%3DoffPageConnector%3BwhiteSpace%3Dwrap%3Bhtml%3D1%3B%22%20vertex%3D%221%22%20parent%3D%221%22%3E%3CmxGeometry%20x%3D%22290%22%20y%3D%22230%22%20width%3D%2280%22%20height%3D%2280%22%20as%3D%22geometry%22%2F%3E%3C%2FmxCell%3E%3C%2Froot%3E%3C%2FmxGraphModel%3E&lt;/span&gt;&lt;span style=&quot;color: rgba(0, 0, 0, 0); font-family: monospace; font-size: 0px; text-align: start; text-wrap: nowrap;&quot;&gt;%3CmxGraphModel%3E%3Croot%3E%3CmxCell%20id%3D%220%22%2F%3E%3CmxCell%20id%3D%221%22%20parent%3D%220%22%2F%3E%3CmxCell%20id%3D%222%22%20value%3D%22%22%20style%3D%22shape%3DoffPageConnector%3BwhiteSpace%3Dwrap%3Bhtml%3D1%3B%22%20vertex%3D%221%22%20parent%3D%221%22%3E%3CmxGeometry%20x%3D%22290%22%20y%3D%22230%22%20width%3D%2280%22%20height%3D%2280%22%20as%3D%22geometry%22%2F%3E%3C%2FmxCell%3E%3C%2Froot%3E%3C%2FmxGraphModel%3E&lt;/span&gt;" style="shape=offPageConnector;whiteSpace=wrap;html=1;rotation=-90;fillColor=none;" parent="1XL7TpapLNvimhhlDV3E-89" vertex="1">
          <mxGeometry x="40" y="-2.5" width="23" height="39" as="geometry" />
        </mxCell>
        <mxCell id="1XL7TpapLNvimhhlDV3E-91" value="b[0]" style="text;align=center;verticalAlign=middle;resizable=0;points=[];autosize=1;strokeColor=none;fillColor=none;html=1;fontSize=10;" parent="1XL7TpapLNvimhhlDV3E-89" vertex="1">
          <mxGeometry width="40" height="30" as="geometry" />
        </mxCell>
        <mxCell id="1XL7TpapLNvimhhlDV3E-92" value="" style="group" parent="1" vertex="1" connectable="0">
          <mxGeometry x="57" y="923.5" width="71" height="30" as="geometry" />
        </mxCell>
        <mxCell id="1XL7TpapLNvimhhlDV3E-93" value="&lt;span style=&quot;color: rgba(0, 0, 0, 0); font-family: monospace; font-size: 0px; text-align: start; text-wrap: nowrap;&quot;&gt;%3CmxGraphModel%3E%3Croot%3E%3CmxCell%20id%3D%220%22%2F%3E%3CmxCell%20id%3D%221%22%20parent%3D%220%22%2F%3E%3CmxCell%20id%3D%222%22%20value%3D%22%22%20style%3D%22shape%3DoffPageConnector%3BwhiteSpace%3Dwrap%3Bhtml%3D1%3B%22%20vertex%3D%221%22%20parent%3D%221%22%3E%3CmxGeometry%20x%3D%22290%22%20y%3D%22230%22%20width%3D%2280%22%20height%3D%2280%22%20as%3D%22geometry%22%2F%3E%3C%2FmxCell%3E%3C%2Froot%3E%3C%2FmxGraphModel%3E&lt;/span&gt;&lt;span style=&quot;color: rgba(0, 0, 0, 0); font-family: monospace; font-size: 0px; text-align: start; text-wrap: nowrap;&quot;&gt;%3CmxGraphModel%3E%3Croot%3E%3CmxCell%20id%3D%220%22%2F%3E%3CmxCell%20id%3D%221%22%20parent%3D%220%22%2F%3E%3CmxCell%20id%3D%222%22%20value%3D%22%22%20style%3D%22shape%3DoffPageConnector%3BwhiteSpace%3Dwrap%3Bhtml%3D1%3B%22%20vertex%3D%221%22%20parent%3D%221%22%3E%3CmxGeometry%20x%3D%22290%22%20y%3D%22230%22%20width%3D%2280%22%20height%3D%2280%22%20as%3D%22geometry%22%2F%3E%3C%2FmxCell%3E%3C%2Froot%3E%3C%2FmxGraphModel%3E&lt;/span&gt;" style="shape=offPageConnector;whiteSpace=wrap;html=1;rotation=-90;fillColor=none;" parent="1XL7TpapLNvimhhlDV3E-92" vertex="1">
          <mxGeometry x="40" y="-2.5" width="23" height="39" as="geometry" />
        </mxCell>
        <mxCell id="1XL7TpapLNvimhhlDV3E-94" value="b[1]" style="text;align=center;verticalAlign=middle;resizable=0;points=[];autosize=1;strokeColor=none;fillColor=none;html=1;fontSize=10;" parent="1XL7TpapLNvimhhlDV3E-92" vertex="1">
          <mxGeometry width="40" height="30" as="geometry" />
        </mxCell>
        <mxCell id="1XL7TpapLNvimhhlDV3E-96" value="" style="endArrow=none;html=1;rounded=0;exitX=0.5;exitY=1;exitDx=0;exitDy=0;entryX=0;entryY=0.25;entryDx=0;entryDy=0;" parent="1" source="1XL7TpapLNvimhhlDV3E-84" target="1XL7TpapLNvimhhlDV3E-30" edge="1">
          <mxGeometry width="50" height="50" relative="1" as="geometry">
            <mxPoint x="270" y="880" as="sourcePoint" />
            <mxPoint x="320" y="830" as="targetPoint" />
            <Array as="points">
              <mxPoint x="130" y="800" />
            </Array>
          </mxGeometry>
        </mxCell>
        <mxCell id="1XL7TpapLNvimhhlDV3E-109" value="" style="endArrow=none;html=1;rounded=0;exitX=0.5;exitY=1;exitDx=0;exitDy=0;" parent="1" source="1XL7TpapLNvimhhlDV3E-87" edge="1">
          <mxGeometry width="50" height="50" relative="1" as="geometry">
            <mxPoint x="270" y="860" as="sourcePoint" />
            <mxPoint x="410" y="810" as="targetPoint" />
            <Array as="points">
              <mxPoint x="140" y="810" />
            </Array>
          </mxGeometry>
        </mxCell>
        <mxCell id="1XL7TpapLNvimhhlDV3E-110" value="" style="ellipse;whiteSpace=wrap;html=1;aspect=fixed;" parent="1" vertex="1">
          <mxGeometry x="404" y="796" width="8" height="8" as="geometry" />
        </mxCell>
        <mxCell id="1XL7TpapLNvimhhlDV3E-111" value="" style="ellipse;whiteSpace=wrap;html=1;aspect=fixed;" parent="1" vertex="1">
          <mxGeometry x="404" y="806" width="8" height="8" as="geometry" />
        </mxCell>
        <mxCell id="1XL7TpapLNvimhhlDV3E-112" value="" style="endArrow=none;html=1;rounded=0;exitX=0.5;exitY=1;exitDx=0;exitDy=0;entryX=0;entryY=0.25;entryDx=0;entryDy=0;" parent="1" source="1XL7TpapLNvimhhlDV3E-84" target="1XL7TpapLNvimhhlDV3E-24" edge="1">
          <mxGeometry width="50" height="50" relative="1" as="geometry">
            <mxPoint x="190" y="872" as="sourcePoint" />
            <mxPoint x="240" y="822" as="targetPoint" />
          </mxGeometry>
        </mxCell>
        <mxCell id="1XL7TpapLNvimhhlDV3E-114" value="" style="endArrow=none;html=1;rounded=0;exitX=0.5;exitY=1;exitDx=0;exitDy=0;entryX=0;entryY=0.75;entryDx=0;entryDy=0;" parent="1" source="1XL7TpapLNvimhhlDV3E-93" target="1XL7TpapLNvimhhlDV3E-24" edge="1">
          <mxGeometry width="50" height="50" relative="1" as="geometry">
            <mxPoint x="138" y="859" as="sourcePoint" />
            <mxPoint x="421" y="857" as="targetPoint" />
          </mxGeometry>
        </mxCell>
        <mxCell id="1XL7TpapLNvimhhlDV3E-115" value="" style="ellipse;whiteSpace=wrap;html=1;aspect=fixed;" parent="1" vertex="1">
          <mxGeometry x="404" y="844" width="8" height="8" as="geometry" />
        </mxCell>
        <mxCell id="1XL7TpapLNvimhhlDV3E-117" value="" style="endArrow=none;html=1;rounded=0;exitX=0.5;exitY=1;exitDx=0;exitDy=0;entryX=0;entryY=0.25;entryDx=0;entryDy=0;" parent="1" source="1XL7TpapLNvimhhlDV3E-90" target="1XL7TpapLNvimhhlDV3E-26" edge="1">
          <mxGeometry width="50" height="50" relative="1" as="geometry">
            <mxPoint x="138" y="859" as="sourcePoint" />
            <mxPoint x="421" y="857" as="targetPoint" />
          </mxGeometry>
        </mxCell>
        <mxCell id="1XL7TpapLNvimhhlDV3E-118" value="" style="endArrow=none;html=1;rounded=0;exitX=0.5;exitY=1;exitDx=0;exitDy=0;entryX=0;entryY=0.5;entryDx=0;entryDy=0;" parent="1" source="1XL7TpapLNvimhhlDV3E-84" target="1XL7TpapLNvimhhlDV3E-26" edge="1">
          <mxGeometry width="50" height="50" relative="1" as="geometry">
            <mxPoint x="148" y="869" as="sourcePoint" />
            <mxPoint x="431" y="867" as="targetPoint" />
            <Array as="points">
              <mxPoint x="150" y="920" />
            </Array>
          </mxGeometry>
        </mxCell>
        <mxCell id="1XL7TpapLNvimhhlDV3E-119" value="" style="ellipse;whiteSpace=wrap;html=1;aspect=fixed;" parent="1" vertex="1">
          <mxGeometry x="404" y="904" width="8" height="8" as="geometry" />
        </mxCell>
        <mxCell id="1XL7TpapLNvimhhlDV3E-121" value="" style="endArrow=none;html=1;rounded=0;exitX=0.5;exitY=1;exitDx=0;exitDy=0;entryX=0.009;entryY=0.395;entryDx=0;entryDy=0;entryPerimeter=0;" parent="1" source="1XL7TpapLNvimhhlDV3E-90" target="1XL7TpapLNvimhhlDV3E-28" edge="1">
          <mxGeometry width="50" height="50" relative="1" as="geometry">
            <mxPoint x="138" y="859" as="sourcePoint" />
            <mxPoint x="421" y="857" as="targetPoint" />
          </mxGeometry>
        </mxCell>
        <mxCell id="1XL7TpapLNvimhhlDV3E-122" value="" style="endArrow=none;html=1;rounded=0;exitX=0.5;exitY=1;exitDx=0;exitDy=0;entryX=0;entryY=0.75;entryDx=0;entryDy=0;" parent="1" source="1XL7TpapLNvimhhlDV3E-93" target="1XL7TpapLNvimhhlDV3E-28" edge="1">
          <mxGeometry width="50" height="50" relative="1" as="geometry">
            <mxPoint x="148" y="869" as="sourcePoint" />
            <mxPoint x="410" y="960" as="targetPoint" />
          </mxGeometry>
        </mxCell>
        <mxCell id="1XL7TpapLNvimhhlDV3E-123" value="" style="endArrow=none;html=1;rounded=0;exitX=0.5;exitY=1;exitDx=0;exitDy=0;entryX=0;entryY=0.25;entryDx=0;entryDy=0;" parent="1" source="1XL7TpapLNvimhhlDV3E-90" target="1XL7TpapLNvimhhlDV3E-32" edge="1">
          <mxGeometry width="50" height="50" relative="1" as="geometry">
            <mxPoint x="158" y="879" as="sourcePoint" />
            <mxPoint x="441" y="877" as="targetPoint" />
          </mxGeometry>
        </mxCell>
        <mxCell id="1XL7TpapLNvimhhlDV3E-124" value="" style="endArrow=none;html=1;rounded=0;exitX=0.5;exitY=1;exitDx=0;exitDy=0;entryX=0.009;entryY=0.622;entryDx=0;entryDy=0;entryPerimeter=0;" parent="1" source="1XL7TpapLNvimhhlDV3E-84" target="1XL7TpapLNvimhhlDV3E-32" edge="1">
          <mxGeometry width="50" height="50" relative="1" as="geometry">
            <mxPoint x="168" y="889" as="sourcePoint" />
            <mxPoint x="451" y="887" as="targetPoint" />
          </mxGeometry>
        </mxCell>
        <mxCell id="1XL7TpapLNvimhhlDV3E-125" value="" style="endArrow=none;html=1;rounded=0;exitX=0.5;exitY=1;exitDx=0;exitDy=0;entryX=0.027;entryY=0.908;entryDx=0;entryDy=0;entryPerimeter=0;" parent="1" source="1XL7TpapLNvimhhlDV3E-87" target="1XL7TpapLNvimhhlDV3E-32" edge="1">
          <mxGeometry width="50" height="50" relative="1" as="geometry">
            <mxPoint x="178" y="899" as="sourcePoint" />
            <mxPoint x="461" y="897" as="targetPoint" />
          </mxGeometry>
        </mxCell>
        <mxCell id="1XL7TpapLNvimhhlDV3E-126" value="" style="ellipse;whiteSpace=wrap;html=1;aspect=fixed;" parent="1" vertex="1">
          <mxGeometry x="404" y="1014" width="8" height="8" as="geometry" />
        </mxCell>
        <mxCell id="1XL7TpapLNvimhhlDV3E-128" value="" style="endArrow=none;html=1;rounded=0;exitX=0.5;exitY=1;exitDx=0;exitDy=0;entryX=0;entryY=0.5;entryDx=0;entryDy=0;" parent="1" source="1XL7TpapLNvimhhlDV3E-78" target="1XL7TpapLNvimhhlDV3E-14" edge="1">
          <mxGeometry width="50" height="50" relative="1" as="geometry">
            <mxPoint x="280" y="540" as="sourcePoint" />
            <mxPoint x="400" y="430" as="targetPoint" />
            <Array as="points">
              <mxPoint x="150" y="450" />
            </Array>
          </mxGeometry>
        </mxCell>
        <mxCell id="1XL7TpapLNvimhhlDV3E-131" value="" style="endArrow=none;html=1;rounded=0;exitX=0.5;exitY=1;exitDx=0;exitDy=0;entryX=0;entryY=0.25;entryDx=0;entryDy=0;" parent="1" source="1XL7TpapLNvimhhlDV3E-72" target="1XL7TpapLNvimhhlDV3E-14" edge="1">
          <mxGeometry width="50" height="50" relative="1" as="geometry">
            <mxPoint x="280" y="540" as="sourcePoint" />
            <mxPoint x="330" y="490" as="targetPoint" />
            <Array as="points">
              <mxPoint x="120" y="432" />
            </Array>
          </mxGeometry>
        </mxCell>
        <mxCell id="1XL7TpapLNvimhhlDV3E-133" value="" style="ellipse;whiteSpace=wrap;html=1;aspect=fixed;" parent="1" vertex="1">
          <mxGeometry x="394" y="438" width="8" height="8" as="geometry" />
        </mxCell>
        <mxCell id="1XL7TpapLNvimhhlDV3E-134" value="" style="endArrow=none;html=1;rounded=0;exitX=0.5;exitY=1;exitDx=0;exitDy=0;entryX=0;entryY=0.25;entryDx=0;entryDy=0;" parent="1" source="1XL7TpapLNvimhhlDV3E-78" target="1XL7TpapLNvimhhlDV3E-8" edge="1">
          <mxGeometry width="50" height="50" relative="1" as="geometry">
            <mxPoint x="280" y="530" as="sourcePoint" />
            <mxPoint x="330" y="480" as="targetPoint" />
            <Array as="points" />
          </mxGeometry>
        </mxCell>
        <mxCell id="1XL7TpapLNvimhhlDV3E-135" value="" style="endArrow=none;html=1;rounded=0;exitX=0.5;exitY=1;exitDx=0;exitDy=0;entryX=0;entryY=0.75;entryDx=0;entryDy=0;" parent="1" source="1XL7TpapLNvimhhlDV3E-72" target="1XL7TpapLNvimhhlDV3E-8" edge="1">
          <mxGeometry width="50" height="50" relative="1" as="geometry">
            <mxPoint x="290" y="540" as="sourcePoint" />
            <mxPoint x="340" y="490" as="targetPoint" />
            <Array as="points">
              <mxPoint x="220" y="490" />
            </Array>
          </mxGeometry>
        </mxCell>
        <mxCell id="1XL7TpapLNvimhhlDV3E-136" value="" style="ellipse;whiteSpace=wrap;html=1;aspect=fixed;" parent="1" vertex="1">
          <mxGeometry x="394" y="493" width="8" height="8" as="geometry" />
        </mxCell>
        <mxCell id="1XL7TpapLNvimhhlDV3E-139" value="" style="endArrow=none;html=1;rounded=0;exitX=0.5;exitY=1;exitDx=0;exitDy=0;entryX=0;entryY=0.25;entryDx=0;entryDy=0;" parent="1" source="1XL7TpapLNvimhhlDV3E-81" target="1XL7TpapLNvimhhlDV3E-10" edge="1">
          <mxGeometry width="50" height="50" relative="1" as="geometry">
            <mxPoint x="280" y="530" as="sourcePoint" />
            <mxPoint x="330" y="480" as="targetPoint" />
            <Array as="points">
              <mxPoint x="120" y="570" />
            </Array>
          </mxGeometry>
        </mxCell>
        <mxCell id="1XL7TpapLNvimhhlDV3E-141" value="" style="endArrow=none;html=1;rounded=0;exitX=0.5;exitY=1;exitDx=0;exitDy=0;entryX=0;entryY=0.5;entryDx=0;entryDy=0;" parent="1" source="1XL7TpapLNvimhhlDV3E-72" target="1XL7TpapLNvimhhlDV3E-10" edge="1">
          <mxGeometry width="50" height="50" relative="1" as="geometry">
            <mxPoint x="280" y="530" as="sourcePoint" />
            <mxPoint x="330" y="480" as="targetPoint" />
          </mxGeometry>
        </mxCell>
        <mxCell id="1XL7TpapLNvimhhlDV3E-142" value="" style="endArrow=none;html=1;rounded=0;exitX=0.5;exitY=1;exitDx=0;exitDy=0;entryX=0;entryY=0.75;entryDx=0;entryDy=0;" parent="1" source="1XL7TpapLNvimhhlDV3E-75" target="1XL7TpapLNvimhhlDV3E-10" edge="1">
          <mxGeometry width="50" height="50" relative="1" as="geometry">
            <mxPoint x="280" y="530" as="sourcePoint" />
            <mxPoint x="330" y="480" as="targetPoint" />
          </mxGeometry>
        </mxCell>
        <mxCell id="1XL7TpapLNvimhhlDV3E-143" value="" style="ellipse;whiteSpace=wrap;html=1;aspect=fixed;" parent="1" vertex="1">
          <mxGeometry x="394" y="526" width="8" height="8" as="geometry" />
        </mxCell>
        <mxCell id="1XL7TpapLNvimhhlDV3E-144" value="" style="ellipse;whiteSpace=wrap;html=1;aspect=fixed;" parent="1" vertex="1">
          <mxGeometry x="394" y="535" width="8" height="8" as="geometry" />
        </mxCell>
        <mxCell id="1XL7TpapLNvimhhlDV3E-145" value="" style="endArrow=none;html=1;rounded=0;exitX=0.5;exitY=1;exitDx=0;exitDy=0;entryX=0;entryY=0.25;entryDx=0;entryDy=0;" parent="1" source="1XL7TpapLNvimhhlDV3E-72" target="1XL7TpapLNvimhhlDV3E-12" edge="1">
          <mxGeometry width="50" height="50" relative="1" as="geometry">
            <mxPoint x="280" y="530" as="sourcePoint" />
            <mxPoint x="330" y="480" as="targetPoint" />
          </mxGeometry>
        </mxCell>
        <mxCell id="1XL7TpapLNvimhhlDV3E-146" value="" style="endArrow=none;html=1;rounded=0;exitX=0.5;exitY=1;exitDx=0;exitDy=0;entryX=0;entryY=0.5;entryDx=0;entryDy=0;" parent="1" source="1XL7TpapLNvimhhlDV3E-75" target="1XL7TpapLNvimhhlDV3E-12" edge="1">
          <mxGeometry width="50" height="50" relative="1" as="geometry">
            <mxPoint x="290" y="540" as="sourcePoint" />
            <mxPoint x="340" y="490" as="targetPoint" />
          </mxGeometry>
        </mxCell>
        <mxCell id="1XL7TpapLNvimhhlDV3E-147" value="" style="endArrow=none;html=1;rounded=0;exitX=0.5;exitY=1;exitDx=0;exitDy=0;entryX=0;entryY=0.75;entryDx=0;entryDy=0;" parent="1" source="1XL7TpapLNvimhhlDV3E-81" target="1XL7TpapLNvimhhlDV3E-12" edge="1">
          <mxGeometry width="50" height="50" relative="1" as="geometry">
            <mxPoint x="300" y="550" as="sourcePoint" />
            <mxPoint x="350" y="500" as="targetPoint" />
          </mxGeometry>
        </mxCell>
        <mxCell id="1XL7TpapLNvimhhlDV3E-148" value="" style="ellipse;whiteSpace=wrap;html=1;aspect=fixed;" parent="1" vertex="1">
          <mxGeometry x="393" y="592" width="8" height="8" as="geometry" />
        </mxCell>
        <mxCell id="1XL7TpapLNvimhhlDV3E-150" value="" style="endArrow=none;html=1;rounded=0;exitX=0.5;exitY=1;exitDx=0;exitDy=0;entryX=0;entryY=0.25;entryDx=0;entryDy=0;" parent="1" source="1XL7TpapLNvimhhlDV3E-81" target="1XL7TpapLNvimhhlDV3E-16" edge="1">
          <mxGeometry width="50" height="50" relative="1" as="geometry">
            <mxPoint x="270" y="550" as="sourcePoint" />
            <mxPoint x="320" y="500" as="targetPoint" />
            <Array as="points">
              <mxPoint x="210" y="640" />
            </Array>
          </mxGeometry>
        </mxCell>
        <mxCell id="1XL7TpapLNvimhhlDV3E-152" value="" style="endArrow=none;html=1;rounded=0;exitX=0.5;exitY=1;exitDx=0;exitDy=0;entryX=0;entryY=0.5;entryDx=0;entryDy=0;" parent="1" source="1XL7TpapLNvimhhlDV3E-78" target="1XL7TpapLNvimhhlDV3E-16" edge="1">
          <mxGeometry width="50" height="50" relative="1" as="geometry">
            <mxPoint x="270" y="550" as="sourcePoint" />
            <mxPoint x="320" y="500" as="targetPoint" />
            <Array as="points">
              <mxPoint x="210" y="630" />
            </Array>
          </mxGeometry>
        </mxCell>
        <mxCell id="1XL7TpapLNvimhhlDV3E-153" value="" style="endArrow=none;html=1;rounded=0;exitX=0.5;exitY=1;exitDx=0;exitDy=0;entryX=0;entryY=0.75;entryDx=0;entryDy=0;" parent="1" source="1XL7TpapLNvimhhlDV3E-75" target="1XL7TpapLNvimhhlDV3E-16" edge="1">
          <mxGeometry width="50" height="50" relative="1" as="geometry">
            <mxPoint x="270" y="550" as="sourcePoint" />
            <mxPoint x="320" y="500" as="targetPoint" />
          </mxGeometry>
        </mxCell>
        <mxCell id="1XL7TpapLNvimhhlDV3E-154" value="" style="ellipse;whiteSpace=wrap;html=1;aspect=fixed;" parent="1" vertex="1">
          <mxGeometry x="393" y="633" width="8" height="8" as="geometry" />
        </mxCell>
        <mxCell id="1XL7TpapLNvimhhlDV3E-155" value="" style="ellipse;whiteSpace=wrap;html=1;aspect=fixed;" parent="1" vertex="1">
          <mxGeometry x="393" y="643" width="8" height="8" as="geometry" />
        </mxCell>
        <mxCell id="1XL7TpapLNvimhhlDV3E-156" value="" style="group;" parent="1" vertex="1" connectable="0">
          <mxGeometry x="401" y="666" width="40" height="40" as="geometry" />
        </mxCell>
        <mxCell id="1XL7TpapLNvimhhlDV3E-157" value="" style="shape=delay;whiteSpace=wrap;html=1;" parent="1XL7TpapLNvimhhlDV3E-156" vertex="1">
          <mxGeometry width="32" height="34" as="geometry" />
        </mxCell>
        <mxCell id="1XL7TpapLNvimhhlDV3E-158" style="edgeStyle=orthogonalEdgeStyle;rounded=0;orthogonalLoop=1;jettySize=auto;html=1;exitX=1;exitY=0.5;exitDx=0;exitDy=0;entryX=0.099;entryY=0.869;entryDx=0;entryDy=0;entryPerimeter=0;" parent="1" source="1XL7TpapLNvimhhlDV3E-157" target="1XL7TpapLNvimhhlDV3E-6" edge="1">
          <mxGeometry relative="1" as="geometry">
            <mxPoint x="540" y="580" as="targetPoint" />
            <Array as="points">
              <mxPoint x="530" y="683" />
              <mxPoint x="530" y="580" />
              <mxPoint x="580" y="580" />
            </Array>
          </mxGeometry>
        </mxCell>
        <mxCell id="1XL7TpapLNvimhhlDV3E-159" value="" style="endArrow=none;html=1;rounded=0;exitX=0.5;exitY=1;exitDx=0;exitDy=0;entryX=0;entryY=0.25;entryDx=0;entryDy=0;" parent="1" source="1XL7TpapLNvimhhlDV3E-78" target="1XL7TpapLNvimhhlDV3E-157" edge="1">
          <mxGeometry width="50" height="50" relative="1" as="geometry">
            <mxPoint x="280" y="600" as="sourcePoint" />
            <mxPoint x="330" y="550" as="targetPoint" />
            <Array as="points">
              <mxPoint x="160" y="640" />
            </Array>
          </mxGeometry>
        </mxCell>
        <mxCell id="1XL7TpapLNvimhhlDV3E-162" value="" style="endArrow=none;html=1;rounded=0;exitX=0.5;exitY=1;exitDx=0;exitDy=0;entryX=0;entryY=0.5;entryDx=0;entryDy=0;" parent="1" source="1XL7TpapLNvimhhlDV3E-81" target="1XL7TpapLNvimhhlDV3E-157" edge="1">
          <mxGeometry width="50" height="50" relative="1" as="geometry">
            <mxPoint x="280" y="600" as="sourcePoint" />
            <mxPoint x="330" y="550" as="targetPoint" />
            <Array as="points">
              <mxPoint x="118" y="670" />
            </Array>
          </mxGeometry>
        </mxCell>
        <mxCell id="1XL7TpapLNvimhhlDV3E-163" value="" style="endArrow=none;html=1;rounded=0;exitX=0.5;exitY=1;exitDx=0;exitDy=0;entryX=0;entryY=0.75;entryDx=0;entryDy=0;" parent="1" source="1XL7TpapLNvimhhlDV3E-75" target="1XL7TpapLNvimhhlDV3E-157" edge="1">
          <mxGeometry width="50" height="50" relative="1" as="geometry">
            <mxPoint x="280" y="600" as="sourcePoint" />
            <mxPoint x="330" y="550" as="targetPoint" />
          </mxGeometry>
        </mxCell>
        <mxCell id="1XL7TpapLNvimhhlDV3E-164" value="" style="ellipse;whiteSpace=wrap;html=1;aspect=fixed;" parent="1" vertex="1">
          <mxGeometry x="393" y="687" width="8" height="8" as="geometry" />
        </mxCell>
      </root>
    </mxGraphModel>
  </diagram>
</mxfile>
